<?xml version="1.0" encoding="UTF-8"?>
<svg version="1.1" xmlns="http://www.w3.org/2000/svg" width="521" height="336">
<path d="M0 0 C0.66 0.33 1.32 0.66 2 1 C2.47589015 13.90191067 0.98487017 24.13553567 -4.62109375 35.875 C-4.94621948 36.56335937 -5.27134521 37.25171875 -5.60632324 37.9609375 C-6.40096584 39.64216482 -7.2000287 41.32130168 -8 43 C20.98962861 35.63246016 49.9361872 28.1118788 78.85437012 20.46893311 C82.84466079 19.41483969 86.83545508 18.36265999 90.82625294 17.3104887 C94.7638601 16.2721603 98.70121579 15.23288101 102.63849449 14.19330788 C104.47074121 13.70959772 106.30304526 13.22610462 108.13541603 12.74286461 C110.70095323 12.06606405 113.26620212 11.38818482 115.83129883 10.7097168 C116.65046185 10.49329875 117.46962488 10.2768807 118.31361103 10.05390453 C122.90445984 8.83647888 127.48736438 7.59358893 132.06478882 6.3265686 C133.07124042 6.04870671 134.07769201 5.77084482 135.11464214 5.48456287 C137.06391804 4.94514802 139.01228707 4.40244243 140.95961475 3.85603619 C142.27489422 3.4921566 142.27489422 3.4921566 143.616745 3.1209259 C144.39196345 2.90424161 145.16718191 2.68755732 145.96589184 2.46430683 C148 2 148 2 151 2 C149.04831993 16.79295817 145.92950014 34.31963453 136 46 C130.69263915 49.84264994 124.13146555 50.71466632 117.828125 51.90234375 C116.01364691 52.30695766 114.20105709 52.72012021 112.39031982 53.14115906 C108.56350278 54.02396495 104.7310649 54.86931181 100.890625 55.69073486 C92.09904383 57.60389723 83.43170633 59.98667794 74.74691772 62.32923508 C69.86138461 63.6415871 64.96751322 64.92203066 60.07421875 66.20507812 C58.10983787 66.72133888 56.14548245 67.23769648 54.18115234 67.75415039 C50.19139882 68.80259426 46.20146251 69.85033956 42.21142578 70.89770508 C37.25528118 72.19878745 32.29972504 73.50209199 27.34450531 74.80669212 C25.50321863 75.29101145 23.66172221 75.77453429 21.81998444 76.25713539 C8.82631406 79.66214771 -4.09362687 83.27637667 -17 87 C-17 99.87 -17 112.74 -17 126 C-10.78329975 125.28679307 -10.78329975 125.28679307 -4.81204224 124.0291748 C-4.08449234 123.83886688 -3.35694244 123.64855896 -2.60734558 123.45248413 C-1.83860611 123.24580109 -1.06986664 123.03911804 -0.27783203 122.82617188 C0.55629715 122.60639679 1.39042633 122.3866217 2.24983215 122.16018677 C4.99861302 121.43463065 7.74537678 120.70172606 10.4921875 119.96875 C12.43942449 119.45319981 14.38678417 118.9381128 16.33425903 118.42346191 C21.47461563 117.06371773 26.61329856 115.69775104 31.75164795 114.33044434 C36.85168778 112.97443351 41.95324859 111.62417328 47.0546875 110.2734375 C50.06142322 109.47686698 53.06812047 108.68015145 56.07480621 107.88339233 C58.05830156 107.35778351 60.04181692 106.83225023 62.02535248 106.30679321 C71.33262082 103.84072517 80.63924494 101.37299773 89.9335537 98.85845184 C93.14879439 97.98897663 96.36531672 97.12430354 99.58197403 96.26008606 C101.06125224 95.86102151 102.53983363 95.4593639 104.01766586 95.05497742 C106.01812096 94.507594 108.02067037 93.96866793 110.02392578 93.43164062 C111.69492844 92.97754822 111.69492844 92.97754822 113.39968872 92.51428223 C116 92 116 92 118 93 C117.52054932 94.22630127 117.04109863 95.45260254 116.54711914 96.71606445 C114.77032714 101.26118161 112.99451231 105.80668002 111.21899414 110.35229492 C110.45005563 112.3204983 109.68085132 114.28859785 108.91137695 116.2565918 C107.8061056 119.08354954 106.70178722 121.91087794 105.59765625 124.73828125 C105.08042747 126.06029289 105.08042747 126.06029289 104.55274963 127.40901184 C104.23249313 128.22963608 103.91223663 129.05026031 103.58227539 129.89575195 C103.30025772 130.61745071 103.01824005 131.33914948 102.72767639 132.0827179 C102.11120894 133.70698662 101.54938884 135.35183347 101 137 C98.41012122 137.93774964 95.94776346 138.66367553 93.28442383 139.32495117 C92.47415237 139.53687103 91.66388092 139.74879089 90.82905579 139.96713257 C88.12469908 140.67121686 85.41602951 141.35697959 82.70703125 142.04296875 C80.80705032 142.53403284 78.90737101 143.0262653 77.00798035 143.51960754 C71.97034513 144.82486162 66.92892887 146.11487876 61.88653564 147.40161133 C56.87858153 148.68191347 51.87391416 149.97490907 46.86914062 151.26757812 C41.03463459 152.77392106 35.19991556 154.27938653 29.36355591 155.77853394 C13.88239708 159.75667943 -1.56348996 163.85146898 -17 168 C-17 181.2 -17 194.4 -17 208 C-3.89182721 204.95177932 -3.89182721 204.95177932 9.13427734 201.61816406 C9.90247299 201.41275497 10.67066864 201.20734589 11.46214294 200.99571228 C13.08712313 200.56090438 14.71180587 200.12498336 16.33619308 199.68796539 C18.90846084 198.99611886 21.48164938 198.30779217 24.05508423 197.62030029 C31.35635401 195.66908824 38.65588745 193.71141479 45.95507812 191.75244141 C50.45420563 190.54520737 54.95428264 189.34156805 59.45494461 188.14006805 C61.98786218 187.46263961 64.51960762 186.78094604 67.05136108 186.09918213 C68.59325982 185.687305 70.1352182 185.2756511 71.67724609 184.86425781 C72.37846085 184.67417648 73.0796756 184.48409515 73.80213928 184.28825378 C76.63226516 183.53746274 79.05629242 183 82 183 C80.72027959 190.44793546 78.13768272 197.5893643 75.66943359 204.71020508 C75.06058082 206.51623118 74.48283187 208.3330675 73.93798828 210.15942383 C73.67099121 211.04847412 73.40399414 211.93752441 73.12890625 212.85351562 C72.90243408 213.63964233 72.67596191 214.42576904 72.44262695 215.23571777 C68.1851113 225.72528196 68.1851113 225.72528196 63.97424507 228.18175507 C61.53732042 229.02877928 59.13707112 229.63241836 56.61547852 230.17773438 C55.69333463 230.40854423 54.77119074 230.63935408 53.8211031 230.87715816 C51.86906125 231.36438883 49.91342639 231.83741936 47.95469284 232.29701042 C44.15331623 233.2014456 40.38518426 234.21405916 36.6121664 235.22925568 C32.72482318 236.27213557 28.82949995 237.2835175 24.93431664 238.29664803 C21.75611113 239.12350562 18.57880291 239.95373853 15.40168762 240.78477478 C6.38592536 243.14241396 -2.6313487 245.49424385 -11.64916992 247.84399414 C-17.2115121 249.29360332 -22.77285923 250.74698111 -28.3336544 252.20251274 C-30.42731538 252.74970063 -32.52135144 253.29545573 -34.61579323 253.83964729 C-58.13296336 259.65746988 -58.13296336 259.65746988 -80.4375 268.875 C-81.34653076 269.33841797 -82.25556152 269.80183594 -83.19213867 270.27929688 C-100.76114085 279.39985785 -117.48476796 290.11254579 -134 301 C-144.13743669 307.67282361 -154.30250898 314.27933222 -164.6875 320.5625 C-165.48841064 321.05097412 -166.28932129 321.53944824 -167.11450195 322.04272461 C-175.04858906 326.79587582 -182.06433946 330.75958398 -191.5 330.5625 C-192.27480713 330.55009277 -193.04961426 330.53768555 -193.84790039 330.52490234 C-206.43416537 330.04725008 -217.27121658 325.68532275 -228.375 320 C-229.19025146 319.58508301 -230.00550293 319.17016602 -230.84545898 318.74267578 C-235.18697221 316.40001679 -237.9402037 314.66314995 -240 310 C-240.44601563 309.07703125 -240.89203125 308.1540625 -241.3515625 307.203125 C-244.02396411 301.00577649 -245.6625128 295.74974406 -246 289 C-242.45929917 290.38298622 -239.00858469 291.89671521 -235.5625 293.5 C-228.7302672 296.59642636 -223.53762145 298.5025081 -216 298 C-213.50494038 295.50494038 -213.64051624 294.32671112 -213.375 290.875 C-213.26285156 289.50988281 -213.26285156 289.50988281 -213.1484375 288.1171875 C-213.07496094 287.06917969 -213.07496094 287.06917969 -213 286 C-212.00097656 285.93941406 -211.00195312 285.87882812 -209.97265625 285.81640625 C-208.03712891 285.69072266 -208.03712891 285.69072266 -206.0625 285.5625 C-204.77472656 285.48128906 -203.48695313 285.40007812 -202.16015625 285.31640625 C-199.13976043 285.35080812 -199.13976043 285.35080812 -198 284 C-197.76712992 282.31816052 -197.58735834 280.6287584 -197.4375 278.9375 C-197.35371094 278.01839844 -197.26992187 277.09929687 -197.18359375 276.15234375 C-197.12300781 275.44207031 -197.06242188 274.73179687 -197 274 C-196.23558594 274.09023438 -195.47117188 274.18046875 -194.68359375 274.2734375 C-187.21844086 274.50700426 -183.35737092 273.11447774 -177.81860352 268.21533203 C-177.15658936 267.58739746 -176.4945752 266.95946289 -175.8125 266.3125 C-175.16531006 265.70003418 -174.51812012 265.08756836 -173.85131836 264.45654297 C-169.31853367 259.89536418 -166.75804466 255.59901496 -166.625 249 C-167.01975222 235.18367234 -173.43626481 222.48697422 -182.8125 212.625 C-191.63729844 204.33181593 -202.93597652 197.90445971 -215.375 197.6875 C-218.95764969 197.99634911 -222.45419216 198.40903203 -226 199 C-226.63709014 186.04583381 -224.97076794 170.65811334 -219 159 C-218.57203125 158.15308594 -218.1440625 157.30617187 -217.703125 156.43359375 C-212.33173064 148.05677635 -203.86567639 145.59772693 -195.01953125 142.08203125 C-189.34655288 139.80262583 -184.66544487 136.94967422 -180 133 C-179.18917969 132.34773437 -178.37835938 131.69546875 -177.54296875 131.0234375 C-165.68341925 121.00384883 -158.2828821 108.99113447 -152 95 C-151.29810547 93.44925781 -151.29810547 93.44925781 -150.58203125 91.8671875 C-148.26605275 87.04892559 -148.26605275 87.04892559 -149 82 C-149.63389648 82.44279297 -150.26779297 82.88558594 -150.92089844 83.34179688 C-172.20179732 98.19900271 -172.20179732 98.19900271 -180.95703125 103.97265625 C-183.38339399 105.58919317 -185.79470821 107.22248424 -188.19921875 108.87109375 C-188.9667749 109.39614502 -189.73433105 109.92119629 -190.52514648 110.4621582 C-192.14234333 111.57689636 -193.75251665 112.70188862 -195.35571289 113.83666992 C-199.65663428 116.85245375 -203.92633333 119.54291988 -208.609375 121.9296875 C-218.16817783 127.01873793 -224.47613416 131.55180842 -227.73876953 142.20166016 C-228.82255998 146.54100184 -229.77926546 150.89438992 -230.63201904 155.28512573 C-232.37370949 164.20945706 -234.7441389 172.97368347 -237.06390381 181.76184082 C-237.80456833 184.5946637 -238.52222927 187.4324714 -239.23486328 190.27246094 C-239.68360726 192.02807457 -240.13264933 193.78361205 -240.58203125 195.5390625 C-240.88151924 196.75588211 -240.88151924 196.75588211 -241.1870575 197.99728394 C-242.19192233 201.86106036 -242.91598219 204.4357074 -246 207 C-247.98 207.99 -247.98 207.99 -250 209 C-249.505 216.425 -249.505 216.425 -249 224 C-251.37630208 223.28385417 -253.75260417 222.56770833 -256.12890625 221.8515625 C-259.41243022 220.87767376 -262.70686976 219.94089435 -266 219 C-265.505 226.92 -265.505 226.92 -265 235 C-275.45072993 232.22992701 -275.45072993 232.22992701 -278.6875 230.875 C-281.51575384 229.8048499 -283.13594905 230.18169973 -286 231 C-286.33 231.99 -286.66 232.98 -287 234 C-285.49379918 236.41347927 -283.9661452 238.61962885 -282.25 240.875 C-281.3368348 242.10029228 -280.42534178 243.32683277 -279.515625 244.5546875 C-279.08185547 245.13831055 -278.64808594 245.72193359 -278.20117188 246.32324219 C-276.66235617 248.47132883 -275.30855367 250.70566922 -274 253 C-284.35505726 252.95612264 -294.18319845 249.56960892 -303.3125 244.7890625 C-306.56082696 243.27016887 -309.77453157 244.92484386 -313 246 C-324.61406264 247.50965659 -333.31006846 243.84689104 -342.56640625 237.140625 C-348.49921274 232.14674962 -353.25542664 226.1017681 -358 220 C-356.46342215 215.19023857 -353.72997043 211.88594366 -350.5625 208.0625 C-349.46803632 206.72063387 -348.37430184 205.37817268 -347.28125 204.03515625 C-346.72953125 203.35984863 -346.1778125 202.68454102 -345.609375 201.98876953 C-343.6664003 199.58775741 -341.7735135 197.15092011 -339.8840332 194.70776367 C-334.85495775 188.20889376 -329.58940131 181.95716558 -324.15063477 175.796875 C-321.26727818 172.61603731 -321.26727818 172.61603731 -319 169 C-325.32455573 170.61798751 -331.55333118 172.46297376 -337.75 174.515625 C-338.42119873 174.7372229 -339.09239746 174.9588208 -339.78393555 175.18713379 C-342.56897464 176.10836956 -345.35300403 177.03231081 -348.13330078 177.96777344 C-350.19047571 178.65839306 -352.25106567 179.33784387 -354.3125 180.015625 C-355.52550781 180.42071289 -356.73851562 180.82580078 -357.98828125 181.24316406 C-361 182 -361 182 -364 181 C-363.50411377 180.62939453 -363.00822754 180.25878906 -362.49731445 179.87695312 C-352.66943383 172.52824843 -342.86913149 165.14697286 -333.125 157.6875 C-327.39498212 153.30443079 -321.64633267 148.9695523 -315.75 144.8125 C-298.29638925 132.46344407 -285.81337985 121.13195081 -274.2421875 103.0234375 C-247.66513515 61.57198549 -216.64603707 41.05868432 -168.76855469 30.58691406 C-147.35774225 26.04797287 -125.67076325 27.80380129 -104.07739258 30.02026367 C-90.72093298 31.33757609 -77.30788395 31.50424349 -64.25 27.9375 C-63.42910889 27.72198486 -62.60821777 27.50646973 -61.76245117 27.28442383 C-41.86086998 21.8337683 -22.69356539 13.27027973 -4.9987793 2.70532227 C-3.36467221 1.7465146 -1.68558597 0.86511159 0 0 Z M-89.375 127.1875 C-90.62023437 127.47947266 -91.86546875 127.77144531 -93.1484375 128.07226562 C-94.3446875 128.37197266 -95.5409375 128.67167969 -96.7734375 128.98046875 C-97.87091309 129.24754639 -98.96838867 129.51462402 -100.09912109 129.78979492 C-104.42069794 131.5926948 -106.17821193 134.32976948 -108.2043457 138.44775391 C-109.25015421 141.17016771 -110.2941954 143.89214598 -111.3125 146.625 C-111.8703418 148.05585938 -111.8703418 148.05585938 -112.43945312 149.515625 C-112.78556641 150.43085938 -113.13167969 151.34609375 -113.48828125 152.2890625 C-113.80321533 153.12131348 -114.11814941 153.95356445 -114.44262695 154.81103516 C-115.24910112 157.15359936 -115.24910112 157.15359936 -114 160 C-109.64755175 159.04976384 -105.30809985 158.05594418 -100.97509766 157.02148438 C-99.50162106 156.67615345 -98.02532164 156.34263577 -96.54638672 156.02148438 C-88.21750262 154.50380413 -88.21750262 154.50380413 -81.23950195 150.22363281 C-80.18410755 148.15896208 -79.57264459 146.24349765 -79 144 C-78.43492413 142.61385424 -77.85541815 141.23350447 -77.26171875 139.859375 C-76.73244601 138.49132851 -76.20768912 137.1215262 -75.6875 135.75 C-75.41099609 135.05648437 -75.13449219 134.36296875 -74.84960938 133.6484375 C-72.97224394 128.85476128 -72.97224394 128.85476128 -74 124 C-79.14105774 124 -84.4138533 125.95486942 -89.375 127.1875 Z M-55.6730957 152.97851562 C-57.09105313 153.32414578 -58.51202563 153.65764864 -59.93579102 153.97851562 C-67.97789823 155.51955195 -67.97789823 155.51955195 -74.70947266 159.71484375 C-75.78621296 161.7940664 -76.40416519 163.73734857 -77 166 C-77.63089136 167.64958899 -78.27192748 169.29532584 -78.921875 170.9375 C-79.53606434 172.62325372 -80.14540969 174.31077986 -80.75 176 C-81.06582031 176.87011719 -81.38164062 177.74023438 -81.70703125 178.63671875 C-82.47566927 180.75629631 -83.23989655 182.87735024 -84 185 C-79.85009437 186.1409135 -77.06297191 185.778082 -72.9296875 184.671875 C-71.78628906 184.36636719 -70.64289063 184.06085938 -69.46484375 183.74609375 C-67.68787109 183.25302734 -67.68787109 183.25302734 -65.875 182.75 C-64.68261719 182.43675781 -63.49023438 182.12351563 -62.26171875 181.80078125 C-55.3137211 180.28598878 -55.3137211 180.28598878 -50 176 C-48.16661111 172.27266436 -46.74566089 168.37362015 -45.25 164.5 C-44.61384766 162.91251953 -44.61384766 162.91251953 -43.96484375 161.29296875 C-43.56910156 160.27847656 -43.17335938 159.26398438 -42.765625 158.21875 C-42.40243164 157.28998047 -42.03923828 156.36121094 -41.66503906 155.40429688 C-40.72801692 152.88645551 -40.72801692 152.88645551 -42 150 C-46.46828172 150 -51.3187399 151.8975866 -55.6730957 152.97851562 Z M-101.5 163.25 C-103.37365234 163.70052734 -103.37365234 163.70052734 -105.28515625 164.16015625 C-107.07759766 164.61455078 -107.07759766 164.61455078 -108.90625 165.078125 C-110.00259766 165.35043945 -111.09894531 165.62275391 -112.22851562 165.90332031 C-116.2143072 167.48050281 -117.32515727 169.5559151 -119.09082031 173.33422852 C-120.15362083 176.07348909 -121.21079846 178.81418307 -122.25 181.5625 C-122.62640625 182.52091797 -123.0028125 183.47933594 -123.390625 184.46679688 C-123.74125 185.38654297 -124.091875 186.30628906 -124.453125 187.25390625 C-124.77442383 188.09252197 -125.09572266 188.9311377 -125.42675781 189.79516602 C-126.25268777 192.14988329 -126.25268777 192.14988329 -125 195 C-118.61561665 194.25154828 -112.4757486 192.76547276 -106.25 191.1875 C-105.20972656 190.93935547 -104.16945313 190.69121094 -103.09765625 190.43554688 C-102.10121094 190.18224609 -101.10476563 189.92894531 -100.078125 189.66796875 C-99.17481445 189.44391357 -98.27150391 189.2198584 -97.34082031 188.98901367 C-93.71481538 187.45700012 -92.53317736 185.14093749 -90.90917969 181.66577148 C-89.84637917 178.92651091 -88.78920154 176.18581693 -87.75 173.4375 C-87.37359375 172.47908203 -86.9971875 171.52066406 -86.609375 170.53320312 C-86.0834375 169.15358398 -86.0834375 169.15358398 -85.546875 167.74609375 C-85.22557617 166.90747803 -84.90427734 166.0688623 -84.57324219 165.20483398 C-83.74731223 162.85011671 -83.74731223 162.85011671 -85 160 C-90.62356781 160 -96.07324926 161.87791132 -101.5 163.25 Z " fill="#FEFEFE" transform="translate(367,3)"/>
<path d="" fill="#FFFFFF" transform="translate(0,0)"/>
</svg>
